<mxfile host="app.diagrams.net" agent="Mozilla/5.0 (Macintosh; Intel Mac OS X 10_15_7) AppleWebKit/537.36 (KHTML, like Gecko) Chrome/133.0.0.0 Safari/537.36" version="26.0.16">
  <diagram name="第 1 页" id="NDgXXRAVoML4oMO2wl3w">
    <mxGraphModel dx="1741" dy="675" grid="0" gridSize="10" guides="1" tooltips="1" connect="1" arrows="1" fold="1" page="0" pageScale="1" pageWidth="827" pageHeight="1169" math="0" shadow="0">
      <root>
        <mxCell id="0" />
        <mxCell id="1" parent="0" />
        <mxCell id="14HyO-3h-rx17xs5dqPF-92" value="" style="rounded=0;whiteSpace=wrap;html=1;" vertex="1" parent="1">
          <mxGeometry x="581" y="1523" width="161" height="159" as="geometry" />
        </mxCell>
        <mxCell id="14HyO-3h-rx17xs5dqPF-3" style="edgeStyle=orthogonalEdgeStyle;rounded=0;orthogonalLoop=1;jettySize=auto;html=1;entryX=0;entryY=0.5;entryDx=0;entryDy=0;" edge="1" parent="1" source="14HyO-3h-rx17xs5dqPF-1" target="14HyO-3h-rx17xs5dqPF-2">
          <mxGeometry relative="1" as="geometry" />
        </mxCell>
        <mxCell id="14HyO-3h-rx17xs5dqPF-1" value="客户请求" style="rounded=1;whiteSpace=wrap;html=1;" vertex="1" parent="1">
          <mxGeometry x="100" y="226" width="99" height="44" as="geometry" />
        </mxCell>
        <mxCell id="14HyO-3h-rx17xs5dqPF-5" style="edgeStyle=orthogonalEdgeStyle;rounded=0;orthogonalLoop=1;jettySize=auto;html=1;entryX=0;entryY=0.5;entryDx=0;entryDy=0;" edge="1" parent="1" source="14HyO-3h-rx17xs5dqPF-2" target="14HyO-3h-rx17xs5dqPF-4">
          <mxGeometry relative="1" as="geometry" />
        </mxCell>
        <mxCell id="14HyO-3h-rx17xs5dqPF-8" style="edgeStyle=orthogonalEdgeStyle;rounded=0;orthogonalLoop=1;jettySize=auto;html=1;entryX=0;entryY=0.5;entryDx=0;entryDy=0;" edge="1" parent="1" source="14HyO-3h-rx17xs5dqPF-2" target="14HyO-3h-rx17xs5dqPF-6">
          <mxGeometry relative="1" as="geometry" />
        </mxCell>
        <mxCell id="14HyO-3h-rx17xs5dqPF-10" style="edgeStyle=orthogonalEdgeStyle;rounded=0;orthogonalLoop=1;jettySize=auto;html=1;entryX=0;entryY=0.5;entryDx=0;entryDy=0;" edge="1" parent="1" source="14HyO-3h-rx17xs5dqPF-2" target="14HyO-3h-rx17xs5dqPF-7">
          <mxGeometry relative="1" as="geometry" />
        </mxCell>
        <mxCell id="14HyO-3h-rx17xs5dqPF-2" value="请求重写&lt;br&gt;（LLM）" style="rounded=1;whiteSpace=wrap;html=1;fillColor=#fff2cc;strokeColor=#d6b656;" vertex="1" parent="1">
          <mxGeometry x="272" y="226" width="99" height="44" as="geometry" />
        </mxCell>
        <mxCell id="14HyO-3h-rx17xs5dqPF-12" style="edgeStyle=orthogonalEdgeStyle;rounded=0;orthogonalLoop=1;jettySize=auto;html=1;entryX=0;entryY=0.5;entryDx=0;entryDy=0;" edge="1" parent="1" source="14HyO-3h-rx17xs5dqPF-4" target="14HyO-3h-rx17xs5dqPF-11">
          <mxGeometry relative="1" as="geometry" />
        </mxCell>
        <mxCell id="14HyO-3h-rx17xs5dqPF-4" value="专业数据搜索" style="rounded=1;whiteSpace=wrap;html=1;fillColor=#ffe6cc;strokeColor=#d79b00;" vertex="1" parent="1">
          <mxGeometry x="444" y="226" width="99" height="44" as="geometry" />
        </mxCell>
        <mxCell id="14HyO-3h-rx17xs5dqPF-13" style="edgeStyle=orthogonalEdgeStyle;rounded=0;orthogonalLoop=1;jettySize=auto;html=1;entryX=0;entryY=0.5;entryDx=0;entryDy=0;" edge="1" parent="1" source="14HyO-3h-rx17xs5dqPF-6" target="14HyO-3h-rx17xs5dqPF-11">
          <mxGeometry relative="1" as="geometry" />
        </mxCell>
        <mxCell id="14HyO-3h-rx17xs5dqPF-6" value="网络数据搜索" style="rounded=1;whiteSpace=wrap;html=1;fillColor=#ffe6cc;strokeColor=#d79b00;" vertex="1" parent="1">
          <mxGeometry x="444" y="304" width="99" height="44" as="geometry" />
        </mxCell>
        <mxCell id="14HyO-3h-rx17xs5dqPF-14" style="edgeStyle=orthogonalEdgeStyle;rounded=0;orthogonalLoop=1;jettySize=auto;html=1;entryX=0;entryY=0.5;entryDx=0;entryDy=0;" edge="1" parent="1" source="14HyO-3h-rx17xs5dqPF-7" target="14HyO-3h-rx17xs5dqPF-11">
          <mxGeometry relative="1" as="geometry" />
        </mxCell>
        <mxCell id="14HyO-3h-rx17xs5dqPF-7" value="问答数据搜索" style="rounded=1;whiteSpace=wrap;html=1;fillColor=#ffe6cc;strokeColor=#d79b00;" vertex="1" parent="1">
          <mxGeometry x="444" y="382" width="99" height="44" as="geometry" />
        </mxCell>
        <mxCell id="14HyO-3h-rx17xs5dqPF-19" style="edgeStyle=orthogonalEdgeStyle;rounded=0;orthogonalLoop=1;jettySize=auto;html=1;" edge="1" parent="1" source="14HyO-3h-rx17xs5dqPF-11">
          <mxGeometry relative="1" as="geometry">
            <mxPoint x="805" y="248" as="targetPoint" />
          </mxGeometry>
        </mxCell>
        <mxCell id="14HyO-3h-rx17xs5dqPF-11" value="LLM&lt;br&gt;(qwen/doubao)" style="ellipse;whiteSpace=wrap;html=1;fillColor=#f8cecc;strokeColor=#b85450;" vertex="1" parent="1">
          <mxGeometry x="644" y="208" width="120" height="80" as="geometry" />
        </mxCell>
        <mxCell id="14HyO-3h-rx17xs5dqPF-15" value="" style="endArrow=none;dashed=1;html=1;dashPattern=1 3;strokeWidth=2;rounded=0;" edge="1" parent="1">
          <mxGeometry width="50" height="50" relative="1" as="geometry">
            <mxPoint x="1" y="176" as="sourcePoint" />
            <mxPoint x="847" y="178" as="targetPoint" />
          </mxGeometry>
        </mxCell>
        <mxCell id="14HyO-3h-rx17xs5dqPF-17" value="prompt提示词" style="rounded=1;whiteSpace=wrap;html=1;fillColor=#fff2cc;strokeColor=#d6b656;" vertex="1" parent="1">
          <mxGeometry x="663" y="332" width="99" height="44" as="geometry" />
        </mxCell>
        <mxCell id="14HyO-3h-rx17xs5dqPF-18" style="edgeStyle=orthogonalEdgeStyle;rounded=0;orthogonalLoop=1;jettySize=auto;html=1;entryX=0.567;entryY=1;entryDx=0;entryDy=0;entryPerimeter=0;" edge="1" parent="1" source="14HyO-3h-rx17xs5dqPF-17" target="14HyO-3h-rx17xs5dqPF-11">
          <mxGeometry relative="1" as="geometry" />
        </mxCell>
        <mxCell id="14HyO-3h-rx17xs5dqPF-20" value="问题输出" style="text;html=1;align=center;verticalAlign=middle;resizable=0;points=[];autosize=1;strokeColor=none;fillColor=none;" vertex="1" parent="1">
          <mxGeometry x="812" y="235" width="66" height="26" as="geometry" />
        </mxCell>
        <mxCell id="14HyO-3h-rx17xs5dqPF-26" style="edgeStyle=orthogonalEdgeStyle;rounded=0;orthogonalLoop=1;jettySize=auto;html=1;entryX=0.5;entryY=0;entryDx=0;entryDy=0;" edge="1" parent="1" source="14HyO-3h-rx17xs5dqPF-21" target="14HyO-3h-rx17xs5dqPF-4">
          <mxGeometry relative="1" as="geometry" />
        </mxCell>
        <mxCell id="14HyO-3h-rx17xs5dqPF-21" value="专业知识库" style="rounded=1;whiteSpace=wrap;html=1;fillColor=#e1d5e7;strokeColor=#9673a6;" vertex="1" parent="1">
          <mxGeometry x="444" y="92" width="99" height="44" as="geometry" />
        </mxCell>
        <mxCell id="14HyO-3h-rx17xs5dqPF-23" style="edgeStyle=orthogonalEdgeStyle;rounded=0;orthogonalLoop=1;jettySize=auto;html=1;entryX=0;entryY=0.5;entryDx=0;entryDy=0;" edge="1" parent="1" source="14HyO-3h-rx17xs5dqPF-22" target="14HyO-3h-rx17xs5dqPF-21">
          <mxGeometry relative="1" as="geometry" />
        </mxCell>
        <mxCell id="14HyO-3h-rx17xs5dqPF-22" value="预处理脚本" style="rounded=1;whiteSpace=wrap;html=1;fillColor=#dae8fc;strokeColor=#6c8ebf;" vertex="1" parent="1">
          <mxGeometry x="272" y="92" width="99" height="44" as="geometry" />
        </mxCell>
        <mxCell id="14HyO-3h-rx17xs5dqPF-25" style="edgeStyle=orthogonalEdgeStyle;rounded=0;orthogonalLoop=1;jettySize=auto;html=1;entryX=0;entryY=0.5;entryDx=0;entryDy=0;" edge="1" parent="1" source="14HyO-3h-rx17xs5dqPF-24" target="14HyO-3h-rx17xs5dqPF-22">
          <mxGeometry relative="1" as="geometry" />
        </mxCell>
        <mxCell id="14HyO-3h-rx17xs5dqPF-24" value="专业书籍/案例" style="rounded=1;whiteSpace=wrap;html=1;fillColor=#f5f5f5;fontColor=#333333;strokeColor=#666666;" vertex="1" parent="1">
          <mxGeometry x="103" y="92" width="99" height="44" as="geometry" />
        </mxCell>
        <mxCell id="14HyO-3h-rx17xs5dqPF-28" style="edgeStyle=orthogonalEdgeStyle;rounded=0;orthogonalLoop=1;jettySize=auto;html=1;entryX=0.5;entryY=1;entryDx=0;entryDy=0;" edge="1" parent="1" source="14HyO-3h-rx17xs5dqPF-27" target="14HyO-3h-rx17xs5dqPF-2">
          <mxGeometry relative="1" as="geometry" />
        </mxCell>
        <mxCell id="14HyO-3h-rx17xs5dqPF-27" value="对话记录" style="rounded=1;whiteSpace=wrap;html=1;fillColor=#f5f5f5;fontColor=#333333;strokeColor=#666666;" vertex="1" parent="1">
          <mxGeometry x="272" y="318" width="99" height="44" as="geometry" />
        </mxCell>
        <mxCell id="14HyO-3h-rx17xs5dqPF-29" value="数据处理" style="text;html=1;align=center;verticalAlign=middle;resizable=0;points=[];autosize=1;strokeColor=none;fillColor=none;" vertex="1" parent="1">
          <mxGeometry x="5" y="148" width="66" height="26" as="geometry" />
        </mxCell>
        <mxCell id="14HyO-3h-rx17xs5dqPF-30" value="请求业务" style="text;html=1;align=center;verticalAlign=middle;resizable=0;points=[];autosize=1;strokeColor=none;fillColor=none;" vertex="1" parent="1">
          <mxGeometry x="5" y="176" width="66" height="26" as="geometry" />
        </mxCell>
        <mxCell id="14HyO-3h-rx17xs5dqPF-35" style="edgeStyle=orthogonalEdgeStyle;rounded=0;orthogonalLoop=1;jettySize=auto;html=1;entryX=0;entryY=0.5;entryDx=0;entryDy=0;" edge="1" parent="1" source="14HyO-3h-rx17xs5dqPF-31" target="14HyO-3h-rx17xs5dqPF-32">
          <mxGeometry relative="1" as="geometry" />
        </mxCell>
        <mxCell id="14HyO-3h-rx17xs5dqPF-36" value="HTTPS" style="edgeLabel;html=1;align=center;verticalAlign=middle;resizable=0;points=[];" vertex="1" connectable="0" parent="14HyO-3h-rx17xs5dqPF-35">
          <mxGeometry x="0.0993" y="1" relative="1" as="geometry">
            <mxPoint x="-41" y="-11" as="offset" />
          </mxGeometry>
        </mxCell>
        <mxCell id="14HyO-3h-rx17xs5dqPF-31" value="财会前端&lt;br&gt;（Javascript）" style="rounded=1;whiteSpace=wrap;html=1;fillColor=#f5f5f5;fontColor=#333333;strokeColor=#666666;" vertex="1" parent="1">
          <mxGeometry x="81" y="800" width="99" height="49" as="geometry" />
        </mxCell>
        <mxCell id="14HyO-3h-rx17xs5dqPF-39" style="edgeStyle=orthogonalEdgeStyle;rounded=0;orthogonalLoop=1;jettySize=auto;html=1;entryX=0;entryY=0.5;entryDx=0;entryDy=0;" edge="1" parent="1" source="14HyO-3h-rx17xs5dqPF-32" target="14HyO-3h-rx17xs5dqPF-34">
          <mxGeometry relative="1" as="geometry" />
        </mxCell>
        <mxCell id="14HyO-3h-rx17xs5dqPF-41" value="HTTP" style="edgeLabel;html=1;align=center;verticalAlign=middle;resizable=0;points=[];" vertex="1" connectable="0" parent="14HyO-3h-rx17xs5dqPF-39">
          <mxGeometry x="-0.1183" y="-1" relative="1" as="geometry">
            <mxPoint x="6" y="-10" as="offset" />
          </mxGeometry>
        </mxCell>
        <mxCell id="14HyO-3h-rx17xs5dqPF-42" style="edgeStyle=orthogonalEdgeStyle;rounded=0;orthogonalLoop=1;jettySize=auto;html=1;" edge="1" parent="1" source="14HyO-3h-rx17xs5dqPF-32" target="14HyO-3h-rx17xs5dqPF-40">
          <mxGeometry relative="1" as="geometry" />
        </mxCell>
        <mxCell id="14HyO-3h-rx17xs5dqPF-52" style="edgeStyle=orthogonalEdgeStyle;rounded=0;orthogonalLoop=1;jettySize=auto;html=1;exitX=0.5;exitY=1;exitDx=0;exitDy=0;" edge="1" parent="1" source="14HyO-3h-rx17xs5dqPF-32" target="14HyO-3h-rx17xs5dqPF-49">
          <mxGeometry relative="1" as="geometry" />
        </mxCell>
        <mxCell id="14HyO-3h-rx17xs5dqPF-32" value="财会后端&lt;br&gt;（Java）" style="rounded=1;whiteSpace=wrap;html=1;fillColor=#ffe6cc;strokeColor=#d79b00;" vertex="1" parent="1">
          <mxGeometry x="331" y="800" width="99" height="49" as="geometry" />
        </mxCell>
        <mxCell id="14HyO-3h-rx17xs5dqPF-37" style="edgeStyle=orthogonalEdgeStyle;rounded=0;orthogonalLoop=1;jettySize=auto;html=1;entryX=0;entryY=0.5;entryDx=0;entryDy=0;" edge="1" parent="1" source="14HyO-3h-rx17xs5dqPF-33" target="14HyO-3h-rx17xs5dqPF-32">
          <mxGeometry relative="1" as="geometry" />
        </mxCell>
        <mxCell id="14HyO-3h-rx17xs5dqPF-38" value="HTTPS" style="edgeLabel;html=1;align=center;verticalAlign=middle;resizable=0;points=[];" vertex="1" connectable="0" parent="14HyO-3h-rx17xs5dqPF-37">
          <mxGeometry x="-0.1784" y="2" relative="1" as="geometry">
            <mxPoint x="-33" y="23" as="offset" />
          </mxGeometry>
        </mxCell>
        <mxCell id="14HyO-3h-rx17xs5dqPF-33" value="财会后台前端&lt;br&gt;（Javascript）" style="rounded=1;whiteSpace=wrap;html=1;fillColor=#f5f5f5;fontColor=#333333;strokeColor=#666666;" vertex="1" parent="1">
          <mxGeometry x="81" y="918" width="99" height="49" as="geometry" />
        </mxCell>
        <mxCell id="14HyO-3h-rx17xs5dqPF-34" value="数据处理&lt;br&gt;（python）" style="rounded=1;whiteSpace=wrap;html=1;fillColor=#ffe6cc;strokeColor=#d79b00;" vertex="1" parent="1">
          <mxGeometry x="523" y="800" width="99" height="49" as="geometry" />
        </mxCell>
        <mxCell id="14HyO-3h-rx17xs5dqPF-40" value="MySQL" style="shape=cylinder3;whiteSpace=wrap;html=1;boundedLbl=1;backgroundOutline=1;size=15;fillColor=#dae8fc;strokeColor=#6c8ebf;" vertex="1" parent="1">
          <mxGeometry x="348.75" y="924" width="63.5" height="61" as="geometry" />
        </mxCell>
        <mxCell id="14HyO-3h-rx17xs5dqPF-44" value="搜索引擎" style="ellipse;shape=cloud;whiteSpace=wrap;html=1;fillColor=#dae8fc;strokeColor=#6c8ebf;" vertex="1" parent="1">
          <mxGeometry x="680" y="780" width="120" height="80" as="geometry" />
        </mxCell>
        <mxCell id="14HyO-3h-rx17xs5dqPF-45" style="edgeStyle=orthogonalEdgeStyle;rounded=0;orthogonalLoop=1;jettySize=auto;html=1;entryX=0.16;entryY=0.55;entryDx=0;entryDy=0;entryPerimeter=0;" edge="1" parent="1" source="14HyO-3h-rx17xs5dqPF-34" target="14HyO-3h-rx17xs5dqPF-44">
          <mxGeometry relative="1" as="geometry" />
        </mxCell>
        <mxCell id="14HyO-3h-rx17xs5dqPF-55" value="HTTPS" style="edgeLabel;html=1;align=center;verticalAlign=middle;resizable=0;points=[];" vertex="1" connectable="0" parent="14HyO-3h-rx17xs5dqPF-45">
          <mxGeometry x="-0.1634" relative="1" as="geometry">
            <mxPoint x="2" y="-9" as="offset" />
          </mxGeometry>
        </mxCell>
        <mxCell id="14HyO-3h-rx17xs5dqPF-47" value="Redis" style="shape=cylinder3;whiteSpace=wrap;html=1;boundedLbl=1;backgroundOutline=1;size=15;fillColor=#dae8fc;strokeColor=#6c8ebf;" vertex="1" parent="1">
          <mxGeometry x="435" y="924" width="63.5" height="61" as="geometry" />
        </mxCell>
        <mxCell id="14HyO-3h-rx17xs5dqPF-48" style="edgeStyle=orthogonalEdgeStyle;rounded=0;orthogonalLoop=1;jettySize=auto;html=1;entryX=0.5;entryY=0;entryDx=0;entryDy=0;entryPerimeter=0;exitX=0.5;exitY=1;exitDx=0;exitDy=0;" edge="1" parent="1" source="14HyO-3h-rx17xs5dqPF-32" target="14HyO-3h-rx17xs5dqPF-47">
          <mxGeometry relative="1" as="geometry" />
        </mxCell>
        <mxCell id="14HyO-3h-rx17xs5dqPF-56" value="自定义协议" style="edgeLabel;html=1;align=center;verticalAlign=middle;resizable=0;points=[];" vertex="1" connectable="0" parent="14HyO-3h-rx17xs5dqPF-48">
          <mxGeometry x="-0.7954" relative="1" as="geometry">
            <mxPoint as="offset" />
          </mxGeometry>
        </mxCell>
        <mxCell id="14HyO-3h-rx17xs5dqPF-49" value="OSS" style="shape=cylinder3;whiteSpace=wrap;html=1;boundedLbl=1;backgroundOutline=1;size=15;fillColor=#dae8fc;strokeColor=#6c8ebf;" vertex="1" parent="1">
          <mxGeometry x="523" y="924" width="63.5" height="61" as="geometry" />
        </mxCell>
        <mxCell id="14HyO-3h-rx17xs5dqPF-50" value="LLM/AI平台&lt;div&gt;知识库&lt;/div&gt;&lt;div&gt;短信服务&lt;/div&gt;" style="ellipse;shape=cloud;whiteSpace=wrap;html=1;fillColor=#fff2cc;strokeColor=#d6b656;" vertex="1" parent="1">
          <mxGeometry x="315" y="659" width="120" height="80" as="geometry" />
        </mxCell>
        <mxCell id="14HyO-3h-rx17xs5dqPF-57" style="edgeStyle=orthogonalEdgeStyle;rounded=0;orthogonalLoop=1;jettySize=auto;html=1;entryX=0.55;entryY=0.95;entryDx=0;entryDy=0;entryPerimeter=0;" edge="1" parent="1" source="14HyO-3h-rx17xs5dqPF-32" target="14HyO-3h-rx17xs5dqPF-50">
          <mxGeometry relative="1" as="geometry" />
        </mxCell>
        <mxCell id="14HyO-3h-rx17xs5dqPF-58" value="HTTPS" style="edgeLabel;html=1;align=center;verticalAlign=middle;resizable=0;points=[];" vertex="1" connectable="0" parent="14HyO-3h-rx17xs5dqPF-57">
          <mxGeometry x="-0.0534" relative="1" as="geometry">
            <mxPoint y="-8" as="offset" />
          </mxGeometry>
        </mxCell>
        <mxCell id="14HyO-3h-rx17xs5dqPF-59" value="微信&lt;div&gt;开放平台&lt;/div&gt;" style="ellipse;shape=cloud;whiteSpace=wrap;html=1;fillColor=#fff2cc;strokeColor=#d6b656;" vertex="1" parent="1">
          <mxGeometry x="448" y="659" width="120" height="80" as="geometry" />
        </mxCell>
        <mxCell id="14HyO-3h-rx17xs5dqPF-60" style="edgeStyle=orthogonalEdgeStyle;rounded=0;orthogonalLoop=1;jettySize=auto;html=1;entryX=0.55;entryY=0.95;entryDx=0;entryDy=0;entryPerimeter=0;" edge="1" parent="1" target="14HyO-3h-rx17xs5dqPF-59">
          <mxGeometry relative="1" as="geometry">
            <mxPoint x="381" y="781" as="sourcePoint" />
          </mxGeometry>
        </mxCell>
        <mxCell id="14HyO-3h-rx17xs5dqPF-61" value="HTTPS" style="edgeLabel;html=1;align=center;verticalAlign=middle;resizable=0;points=[];" vertex="1" connectable="0" parent="1">
          <mxGeometry x="398" y="770" as="geometry">
            <mxPoint x="117" y="-10" as="offset" />
          </mxGeometry>
        </mxCell>
        <mxCell id="14HyO-3h-rx17xs5dqPF-65" style="edgeStyle=orthogonalEdgeStyle;rounded=0;orthogonalLoop=1;jettySize=auto;html=1;entryX=0;entryY=0.5;entryDx=0;entryDy=0;" edge="1" parent="1" source="14HyO-3h-rx17xs5dqPF-63" target="14HyO-3h-rx17xs5dqPF-64">
          <mxGeometry relative="1" as="geometry" />
        </mxCell>
        <mxCell id="14HyO-3h-rx17xs5dqPF-87" style="edgeStyle=orthogonalEdgeStyle;rounded=0;orthogonalLoop=1;jettySize=auto;html=1;entryX=0;entryY=0.5;entryDx=0;entryDy=0;" edge="1" parent="1" source="14HyO-3h-rx17xs5dqPF-63" target="14HyO-3h-rx17xs5dqPF-82">
          <mxGeometry relative="1" as="geometry" />
        </mxCell>
        <mxCell id="14HyO-3h-rx17xs5dqPF-109" value="企业CEN网络&lt;br&gt;打通" style="edgeLabel;html=1;align=center;verticalAlign=middle;resizable=0;points=[];" vertex="1" connectable="0" parent="14HyO-3h-rx17xs5dqPF-87">
          <mxGeometry x="-0.0793" relative="1" as="geometry">
            <mxPoint x="-1" y="7" as="offset" />
          </mxGeometry>
        </mxCell>
        <mxCell id="14HyO-3h-rx17xs5dqPF-98" style="edgeStyle=orthogonalEdgeStyle;rounded=0;orthogonalLoop=1;jettySize=auto;html=1;entryX=0;entryY=0.5;entryDx=0;entryDy=0;" edge="1" parent="1">
          <mxGeometry relative="1" as="geometry">
            <mxPoint x="189" y="1508.5" as="sourcePoint" />
            <mxPoint x="257.75" y="1612.5" as="targetPoint" />
            <Array as="points">
              <mxPoint x="226" y="1509" />
              <mxPoint x="226" y="1613" />
            </Array>
          </mxGeometry>
        </mxCell>
        <mxCell id="14HyO-3h-rx17xs5dqPF-63" value="ALB&lt;br&gt;（负载均衡）" style="rounded=0;whiteSpace=wrap;html=1;fillColor=#dae8fc;strokeColor=#6c8ebf;" vertex="1" parent="1">
          <mxGeometry x="100" y="1488" width="90" height="41" as="geometry" />
        </mxCell>
        <mxCell id="14HyO-3h-rx17xs5dqPF-80" style="edgeStyle=orthogonalEdgeStyle;rounded=0;orthogonalLoop=1;jettySize=auto;html=1;entryX=0;entryY=0.5;entryDx=0;entryDy=0;" edge="1" parent="1" source="14HyO-3h-rx17xs5dqPF-64" target="14HyO-3h-rx17xs5dqPF-76">
          <mxGeometry relative="1" as="geometry" />
        </mxCell>
        <mxCell id="14HyO-3h-rx17xs5dqPF-81" style="edgeStyle=orthogonalEdgeStyle;rounded=0;orthogonalLoop=1;jettySize=auto;html=1;entryX=0;entryY=0.5;entryDx=0;entryDy=0;" edge="1" parent="1" source="14HyO-3h-rx17xs5dqPF-64" target="14HyO-3h-rx17xs5dqPF-78">
          <mxGeometry relative="1" as="geometry" />
        </mxCell>
        <mxCell id="14HyO-3h-rx17xs5dqPF-64" value="财会前端" style="rounded=0;whiteSpace=wrap;html=1;fillColor=#ffe6cc;strokeColor=#d79b00;" vertex="1" parent="1">
          <mxGeometry x="258.75" y="1473" width="90" height="71" as="geometry" />
        </mxCell>
        <mxCell id="14HyO-3h-rx17xs5dqPF-75" value="&lt;font style=&quot;font-size: 10px;&quot;&gt;杭州-可用区i&lt;/font&gt;" style="text;html=1;align=center;verticalAlign=middle;resizable=0;points=[];autosize=1;strokeColor=none;fillColor=none;" vertex="1" parent="1">
          <mxGeometry x="253" y="1522" width="74" height="26" as="geometry" />
        </mxCell>
        <mxCell id="14HyO-3h-rx17xs5dqPF-76" value="财会后端" style="rounded=0;whiteSpace=wrap;html=1;fillColor=#f8cecc;strokeColor=#b85450;" vertex="1" parent="1">
          <mxGeometry x="408.5" y="1473" width="90" height="71" as="geometry" />
        </mxCell>
        <mxCell id="14HyO-3h-rx17xs5dqPF-77" value="&lt;font style=&quot;font-size: 10px;&quot;&gt;杭州-可用区i&lt;/font&gt;" style="text;html=1;align=center;verticalAlign=middle;resizable=0;points=[];autosize=1;strokeColor=none;fillColor=none;" vertex="1" parent="1">
          <mxGeometry x="402.75" y="1522" width="74" height="26" as="geometry" />
        </mxCell>
        <mxCell id="14HyO-3h-rx17xs5dqPF-78" value="财会后端" style="rounded=0;whiteSpace=wrap;html=1;fillColor=#f8cecc;strokeColor=#b85450;" vertex="1" parent="1">
          <mxGeometry x="411.38" y="1577" width="90" height="71" as="geometry" />
        </mxCell>
        <mxCell id="14HyO-3h-rx17xs5dqPF-79" value="&lt;font style=&quot;font-size: 10px;&quot;&gt;杭州-可用区g&lt;/font&gt;" style="text;html=1;align=center;verticalAlign=middle;resizable=0;points=[];autosize=1;strokeColor=none;fillColor=none;" vertex="1" parent="1">
          <mxGeometry x="404.63" y="1626" width="77" height="26" as="geometry" />
        </mxCell>
        <mxCell id="14HyO-3h-rx17xs5dqPF-86" style="edgeStyle=orthogonalEdgeStyle;rounded=0;orthogonalLoop=1;jettySize=auto;html=1;" edge="1" parent="1" source="14HyO-3h-rx17xs5dqPF-82" target="14HyO-3h-rx17xs5dqPF-84">
          <mxGeometry relative="1" as="geometry" />
        </mxCell>
        <mxCell id="14HyO-3h-rx17xs5dqPF-82" value="财会前端" style="rounded=0;whiteSpace=wrap;html=1;fillColor=#ffe6cc;strokeColor=#d79b00;" vertex="1" parent="1">
          <mxGeometry x="261.63" y="1355" width="90" height="71" as="geometry" />
        </mxCell>
        <mxCell id="14HyO-3h-rx17xs5dqPF-83" value="&lt;font style=&quot;font-size: 10px;&quot;&gt;北京-可用区i&lt;/font&gt;" style="text;html=1;align=center;verticalAlign=middle;resizable=0;points=[];autosize=1;strokeColor=none;fillColor=none;" vertex="1" parent="1">
          <mxGeometry x="255.88" y="1404" width="74" height="26" as="geometry" />
        </mxCell>
        <mxCell id="14HyO-3h-rx17xs5dqPF-84" value="财会后端" style="rounded=0;whiteSpace=wrap;html=1;fillColor=#f8cecc;strokeColor=#b85450;" vertex="1" parent="1">
          <mxGeometry x="408.5" y="1355" width="90" height="71" as="geometry" />
        </mxCell>
        <mxCell id="14HyO-3h-rx17xs5dqPF-85" value="&lt;font style=&quot;font-size: 10px;&quot;&gt;北京-可用区i&lt;/font&gt;" style="text;html=1;align=center;verticalAlign=middle;resizable=0;points=[];autosize=1;strokeColor=none;fillColor=none;" vertex="1" parent="1">
          <mxGeometry x="402.75" y="1404" width="74" height="26" as="geometry" />
        </mxCell>
        <mxCell id="14HyO-3h-rx17xs5dqPF-88" value="" style="endArrow=none;dashed=1;html=1;dashPattern=1 3;strokeWidth=2;rounded=0;" edge="1" parent="1">
          <mxGeometry width="50" height="50" relative="1" as="geometry">
            <mxPoint x="24" y="1445" as="sourcePoint" />
            <mxPoint x="543" y="1445" as="targetPoint" />
          </mxGeometry>
        </mxCell>
        <mxCell id="14HyO-3h-rx17xs5dqPF-89" value="MySQL" style="shape=cylinder3;whiteSpace=wrap;html=1;boundedLbl=1;backgroundOutline=1;size=15;fillColor=#f5f5f5;fontColor=#333333;strokeColor=#666666;" vertex="1" parent="1">
          <mxGeometry x="597" y="1534" width="53" height="64" as="geometry" />
        </mxCell>
        <mxCell id="14HyO-3h-rx17xs5dqPF-90" value="Redis" style="shape=cylinder3;whiteSpace=wrap;html=1;boundedLbl=1;backgroundOutline=1;size=15;fillColor=#f5f5f5;fontColor=#333333;strokeColor=#666666;" vertex="1" parent="1">
          <mxGeometry x="673" y="1537.5" width="53" height="64" as="geometry" />
        </mxCell>
        <mxCell id="14HyO-3h-rx17xs5dqPF-91" value="OSS&lt;div&gt;/其他&lt;/div&gt;" style="shape=cylinder3;whiteSpace=wrap;html=1;boundedLbl=1;backgroundOutline=1;size=15;fillColor=#f5f5f5;fontColor=#333333;strokeColor=#666666;" vertex="1" parent="1">
          <mxGeometry x="635" y="1601.5" width="53" height="64" as="geometry" />
        </mxCell>
        <mxCell id="14HyO-3h-rx17xs5dqPF-99" style="edgeStyle=orthogonalEdgeStyle;rounded=0;orthogonalLoop=1;jettySize=auto;html=1;" edge="1" parent="1" source="14HyO-3h-rx17xs5dqPF-96">
          <mxGeometry relative="1" as="geometry">
            <mxPoint x="410" y="1612.5" as="targetPoint" />
          </mxGeometry>
        </mxCell>
        <mxCell id="14HyO-3h-rx17xs5dqPF-96" value="财会前端" style="rounded=0;whiteSpace=wrap;html=1;fillColor=#ffe6cc;strokeColor=#d79b00;" vertex="1" parent="1">
          <mxGeometry x="258.75" y="1577" width="90" height="71" as="geometry" />
        </mxCell>
        <mxCell id="14HyO-3h-rx17xs5dqPF-97" value="&lt;font style=&quot;font-size: 10px;&quot;&gt;杭州-可用区i&lt;/font&gt;" style="text;html=1;align=center;verticalAlign=middle;resizable=0;points=[];autosize=1;strokeColor=none;fillColor=none;" vertex="1" parent="1">
          <mxGeometry x="253" y="1626" width="74" height="26" as="geometry" />
        </mxCell>
        <mxCell id="14HyO-3h-rx17xs5dqPF-100" value="杭州Region" style="text;html=1;align=center;verticalAlign=middle;resizable=0;points=[];autosize=1;strokeColor=none;fillColor=none;" vertex="1" parent="1">
          <mxGeometry x="29" y="1451" width="80" height="26" as="geometry" />
        </mxCell>
        <mxCell id="14HyO-3h-rx17xs5dqPF-101" value="北京Region" style="text;html=1;align=center;verticalAlign=middle;resizable=0;points=[];autosize=1;strokeColor=none;fillColor=none;" vertex="1" parent="1">
          <mxGeometry x="29" y="1414" width="80" height="26" as="geometry" />
        </mxCell>
        <mxCell id="14HyO-3h-rx17xs5dqPF-102" value="LLM/AI平台" style="ellipse;shape=cloud;whiteSpace=wrap;html=1;fillColor=#d5e8d4;strokeColor=#82b366;" vertex="1" parent="1">
          <mxGeometry x="577" y="1322" width="120" height="80" as="geometry" />
        </mxCell>
        <mxCell id="14HyO-3h-rx17xs5dqPF-103" value="" style="endArrow=none;dashed=1;html=1;dashPattern=1 3;strokeWidth=2;rounded=0;" edge="1" parent="1">
          <mxGeometry width="50" height="50" relative="1" as="geometry">
            <mxPoint x="545" y="1665" as="sourcePoint" />
            <mxPoint x="543" y="1287" as="targetPoint" />
          </mxGeometry>
        </mxCell>
        <mxCell id="14HyO-3h-rx17xs5dqPF-104" value="阿里云服务" style="text;html=1;align=center;verticalAlign=middle;resizable=0;points=[];autosize=1;strokeColor=none;fillColor=none;" vertex="1" parent="1">
          <mxGeometry x="577" y="1658" width="78" height="26" as="geometry" />
        </mxCell>
        <mxCell id="14HyO-3h-rx17xs5dqPF-105" value="云服务" style="text;html=1;align=center;verticalAlign=middle;resizable=0;points=[];autosize=1;strokeColor=none;fillColor=none;" vertex="1" parent="1">
          <mxGeometry x="561" y="1281" width="54" height="26" as="geometry" />
        </mxCell>
        <mxCell id="14HyO-3h-rx17xs5dqPF-106" value="搜索引擎" style="ellipse;shape=cloud;whiteSpace=wrap;html=1;fillColor=#d5e8d4;strokeColor=#82b366;" vertex="1" parent="1">
          <mxGeometry x="577" y="1416" width="120" height="80" as="geometry" />
        </mxCell>
        <mxCell id="14HyO-3h-rx17xs5dqPF-108" style="edgeStyle=orthogonalEdgeStyle;rounded=0;orthogonalLoop=1;jettySize=auto;html=1;" edge="1" parent="1" source="14HyO-3h-rx17xs5dqPF-107" target="14HyO-3h-rx17xs5dqPF-63">
          <mxGeometry relative="1" as="geometry" />
        </mxCell>
        <mxCell id="14HyO-3h-rx17xs5dqPF-107" value="用户" style="shape=umlActor;verticalLabelPosition=bottom;verticalAlign=top;html=1;outlineConnect=0;fillColor=#e1d5e7;strokeColor=#9673a6;" vertex="1" parent="1">
          <mxGeometry x="-124" y="1478.5" width="30" height="60" as="geometry" />
        </mxCell>
      </root>
    </mxGraphModel>
  </diagram>
</mxfile>
